HIERARCHY
ROOT Hips
{
 OFFSET 0.000000 0.000000 0.000000
 CHANNELS 6 Xposition Yposition Zposition Yrotation Xrotation Zrotation
 JOINT Chest
 {
  OFFSET 0.000000 9.585900 0.002600
  CHANNELS 3 Yrotation Xrotation Zrotation
  JOINT Chest2
  {
   OFFSET 0.000000 9.601200 -0.005300
   CHANNELS 3 Yrotation Xrotation Zrotation
   JOINT Chest3
   {
    OFFSET 0.000000 9.561800 0.000000
    CHANNELS 3 Yrotation Xrotation Zrotation
    JOINT Chest4
    {
     OFFSET 0.000000 9.552100 0.000000
     CHANNELS 3 Yrotation Xrotation Zrotation
     JOINT Neck
     {
      OFFSET 0.000000 14.453000 0.000000
      CHANNELS 3 Yrotation Xrotation Zrotation
      JOINT Head
      {
       OFFSET 0.000000 8.936500 -0.011300
       CHANNELS 3 Yrotation Xrotation Zrotation
       End Site
       {
        OFFSET 0.000000 17.073600 -0.006000
       }
      }
     }
     JOINT RightCollar
     {
      OFFSET -2.921100 9.558500 0.000000
      CHANNELS 3 Yrotation Xrotation Zrotation
      JOINT RightShoulder
      {
       OFFSET -13.519700 0.000000 0.000000
       CHANNELS 3 Yrotation Xrotation Zrotation
       JOINT RightElbow
       {
        OFFSET 0.000000 -29.696600 0.000000
        CHANNELS 3 Yrotation Xrotation Zrotation
        JOINT RightWrist
        {
         OFFSET 0.000000 -24.004700 0.000000
         CHANNELS 3 Yrotation Xrotation Zrotation
         End Site
         {
          OFFSET 0.000000 -17.728500 0.000000
         }
        }
       }
      }
     }
     JOINT LeftCollar
     {
      OFFSET 2.921100 9.558500 0.000000
      CHANNELS 3 Yrotation Xrotation Zrotation
      JOINT LeftShoulder
      {
       OFFSET 13.519700 0.000000 0.000000
       CHANNELS 3 Yrotation Xrotation Zrotation
       JOINT LeftElbow
       {
        OFFSET 0.000000 -29.696600 0.000000
        CHANNELS 3 Yrotation Xrotation Zrotation
        JOINT LeftWrist
        {
         OFFSET 0.000000 -24.004700 0.000000
         CHANNELS 3 Yrotation Xrotation Zrotation
         End Site
         {
          OFFSET 0.000000 -17.728500 0.000000
         }
        }
       }
      }
     }
    }
   }
  }
 }
 JOINT RightHip
 {
  OFFSET -7.771700 -0.012900 -0.001300
  CHANNELS 3 Yrotation Xrotation Zrotation
  JOINT RightKnee
  {
   OFFSET 0.000000 -40.869800 0.001200
   CHANNELS 3 Yrotation Xrotation Zrotation
   JOINT RightAnkle
   {
    OFFSET 0.000000 -39.717900 0.002100
    CHANNELS 3 Yrotation Xrotation Zrotation
    JOINT RightToe
    {
     OFFSET 0.000000 -4.965400 11.033500
     CHANNELS 3 Yrotation Xrotation Zrotation
     End Site
     {
      OFFSET 0.000000 -1.423100 5.872300
     }
    }
   }
  }
 }
 JOINT LeftHip
 {
  OFFSET 7.771700 -0.012900 -0.001300
  CHANNELS 3 Yrotation Xrotation Zrotation
  JOINT LeftKnee
  {
   OFFSET 0.000000 -40.869800 0.001200
   CHANNELS 3 Yrotation Xrotation Zrotation
   JOINT LeftAnkle
   {
    OFFSET 0.000000 -39.717900 0.002100
    CHANNELS 3 Yrotation Xrotation Zrotation
    JOINT LeftToe
    {
     OFFSET 0.000000 -4.965400 11.033500
     CHANNELS 3 Yrotation Xrotation Zrotation
     End Site
     {
      OFFSET 0.000000 -1.423100 5.872300
     }
    }
   }
  }
 }
}
MOTION
Frames: 7
Frame Time: 0.008333
0.000000 85.388000 0.000000 0.000000 -5.767877 0.000000 0.000000 11.653817 0.000000 0.000000 -5.885947 0.000000 0.000000 -0.000000 0.000000 0.000000 -0.000000 0.000000 0.000000 12.528835 0.000000 0.000000 0.711642 0.000000 0.000000 -0.000000 0.000000 0.000000 0.000000 -90.000000 0.000000 -2.309062 0.000000 0.000000 2.309062 0.000000 0.000000 -0.000000 0.000000 0.000000 -0.000000 90.000000 0.000000 -2.309062 0.000000 0.000000 2.309062 0.000000 0.000000 8.520406 0.000000 0.000000 1.905762 0.000000 -0.000000 -4.658285 0.000000 0.000000 -0.000000 0.000000 0.000000 8.520406 0.000000 0.000000 1.905762 0.000000 -0.000000 -4.658285 0.000000 0.000000 -0.000000 0.000000
-130.612990 51.835514 -53.879390 176.083604 -26.534866 1.151469 -1.083898 9.948226 -0.071790 -0.080236 0.611069 0.032791 -0.138473 1.055732 0.056121 -1.194445 9.314045 0.409666 -3.024148 17.941156 -2.516954 -2.631527 -6.782189 -1.978297 -3.359849 15.267889 6.785726 -7.086650 -14.028898 -44.119470 118.480855 -21.116945 -175.586189 3.498855 -3.370672 -21.073662 5.107903 11.924094 -8.721305 10.466657 -12.017259 51.364822 -97.199157 -25.796325 172.073892 2.967110 -3.451862 25.646935 -9.858744 -56.005261 4.041974 -81.357189 81.964111 -89.747561 -5.246368 -8.218687 5.768466 0.316968 -0.656344 0.111646 10.941373 -53.693939 -8.478594 30.120277 83.907197 35.994544 -2.473596 -11.480893 0.327747 0.077900 0.507468 0.051994
-130.610885 51.833570 -53.888344 176.096789 -26.447187 1.138868 -1.125632 9.962926 -0.071567 -0.064615 0.559744 0.034044 -0.156633 1.102534 0.054550 -1.184926 9.260137 0.410660 -3.011017 18.023290 -2.495179 -2.595304 -6.738365 -1.962475 -3.395149 15.299257 6.782358 -7.017396 -13.993415 -44.080417 118.355396 -21.022468 -175.461693 3.496827 -3.388813 -20.878716 5.096442 11.926767 -8.757829 10.494370 -12.041889 51.349516 -97.103080 -25.806788 172.039153 2.947095 -3.475730 25.674529 -9.908687 -56.095193 4.083515 -81.581943 81.967513 -89.960712 -5.268593 -8.267503 5.760037 0.323175 -0.652188 0.120901 10.982188 -53.786064 -8.495997 30.138685 83.931182 36.002384 -2.489903 -11.498142 0.356493 0.081351 0.507851 0.049551
-130.609492 51.831174 -53.899429 176.094724 -26.344159 1.137420 -1.153479 9.959413 -0.076179 -0.049580 0.510942 0.036483 -0.173956 1.146302 0.051776 -1.212468 9.267333 0.407224 -2.954205 18.055596 -2.470104 -2.554309 -6.681119 -1.946513 -3.363354 15.235772 6.783551 -6.983719 -13.975568 -44.060420 118.203226 -20.934762 -175.298611 3.515332 -3.413921 -20.716123 5.125041 11.866071 -8.794591 10.523415 -12.060278 51.334318 -96.932012 -25.800052 171.988304 2.906673 -3.513711 25.717556 -9.971155 -56.205696 4.147780 -81.786045 81.968237 -90.175372 -5.284778 -8.289468 5.759067 0.330462 -0.669526 0.128115 11.048123 -53.890105 -8.530282 30.163316 83.956394 36.020842 -2.494708 -11.515148 0.370280 0.087131 0.504052 0.053899
-130.611544 51.827072 -53.910015 176.099527 -26.212483 1.151452 -1.188984 9.921909 -0.100368 -0.050919 0.513864 0.038408 -0.174606 1.138022 0.049515 -1.238495 9.272110 0.403167 -2.891692 18.099824 -2.442966 -2.507941 -6.612671 -1.930036 -3.387068 15.224938 6.777596 -6.927370 -13.937445 -44.001967 117.991837 -20.761621 -175.167301 3.547609 -3.448936 -20.580906 5.157267 11.809769 -8.822442 10.621782 -12.032675 51.272719 -96.724762 -25.739337 172.003166 2.845440 -3.558772 25.774938 -10.020215 -56.344861 4.185543 -81.918147 81.971609 -90.321734 -5.325695 -8.285716 5.774340 0.375526 -0.698189 0.123037 11.142558 -54.017884 -8.611779 30.127341 83.980156 35.992058 -2.528295 -11.547715 0.373662 0.122296 0.520700 0.068117
-130.611319 51.823619 -53.924540 176.065793 -26.088737 1.167368 -1.187374 9.887609 -0.110253 -0.076067 0.582192 0.033712 -0.141928 1.043994 0.055470 -1.236788 9.244210 0.403727 -2.859554 18.201704 -2.419396 -2.454585 -6.536665 -1.913844 -3.451038 15.267464 6.766778 -6.901013 -13.911529 -43.936943 117.758285 -20.561587 -175.030676 3.589971 -3.499849 -20.466828 5.157576 11.810954 -8.839703 10.711623 -12.038313 51.235363 -96.456124 -25.699425 171.975288 2.757660 -3.632646 25.852872 -10.103195 -56.479426 4.280085 -82.077749 81.981957 -90.520351 -5.311170 -8.284584 5.776356 0.370288 -0.719891 0.116761 11.251527 -54.137891 -8.663019 30.205739 84.011032 36.068087 -2.545892 -11.576249 0.397477 0.123634 0.519543 0.068254
-130.608104 51.825514 -53.952518 176.029054 -26.042263 1.167774 -1.183084 9.926419 -0.105566 -0.083794 0.601118 0.031956 -0.109576 0.960965 0.062181 -1.284684 9.301080 0.391231 -2.782423 18.259890 -2.389457 -2.391666 -6.457469 -1.899460 -3.465232 15.253371 6.765065 -6.860233 -13.932745 -43.909000 117.472111 -20.395278 -174.834921 3.644712 -3.571297 -20.363329 5.202791 11.752160 -8.847816 10.800708 -12.041838 51.204084 -96.135793 -25.670074 171.916309 2.637773 -3.766887 25.964003 -10.151784 -56.526091 4.345595 -82.357024 81.968637 -90.799796 -5.304349 -8.314020 5.754299 0.397103 -0.747419 0.133910 11.320210 -54.184752 -8.650803 30.492609 84.056779 36.330584 -2.554093 -11.626493 0.454653 0.091794 0.513635 0.051214
